<?xml version="1.0" encoding="UTF-8"?><svg id="a" xmlns="http://www.w3.org/2000/svg" width="48" height="48" viewBox="0 0 48 48"><path d="M4.6942,25.9589c1.7556,5.2582,6.6824,9.1289,12.4826,9.2369l1.8232.0396v7.7646l8-7.7646,3.8232-.0396c5.8002-.108,10.727-3.9786,12.4826-9.2369,1.511-.207,2.6942-1.8895,2.6942-3.9589,0-1.9947-1.0982-3.6346-2.5305-3.9369-1.5943-5.5235-6.6551-9.6484-12.6463-9.7599-.8654-.016-1.8546-.0278-2.8972-.0366-.3452-1.8579-1.9681-3.2667-3.9261-3.2667s-3.5809,1.4088-3.9261,3.2667c-1.0425.0087-2.0318.0206-2.8972.0366-5.9912.1115-11.052,4.2364-12.6463,9.7599-1.4323.3023-2.5305,1.9422-2.5305,3.9369,0,2.0695,1.1831,3.7519,2.6942,3.9589ZM17.2881,14.3022c1.8682-.0347,4.79-.0522,6.7119-.0522s4.8438.0176,6.7119.0522c4.0186.0747,7.2881,3.4155,7.2881,7.4473s-3.2695,7.3726-7.2881,7.4473c-3.7363.0693-9.6875.0693-13.4238,0-4.0186-.0747-7.2881-3.4155-7.2881-7.4473s3.2695-7.3726,7.2881-7.4473ZM30.4834,21.4834c0,1.3715-1.1119,2.4834-2.4834,2.4834s-2.4834-1.1119-2.4834-2.4834,1.1119-2.4834,2.4834-2.4834,2.4834,1.1119,2.4834,2.4834ZM22.4834,21.4834c0,1.3715-1.1119,2.4834-2.4834,2.4834s-2.4834-1.1119-2.4834-2.4834,1.1119-2.4834,2.4834-2.4834,2.4834,1.1119,2.4834,2.4834Z"/></svg>