<svg xmlns="http://www.w3.org/2000/svg" xmlns:xlink="http://www.w3.org/1999/xlink" width="256" height="256" viewBox="0 0 256 256">
  <defs>
    <style>
      .cls-1 {
        fill-rule: evenodd;
        filter: url(#filter);
      }
    </style>
    <filter id="filter" x="0" y="0" width="255.844" height="255.844" filterUnits="userSpaceOnUse">
      <feFlood result="flood" flood-color="#fff"/>
      <feComposite result="composite" operator="in" in2="SourceGraphic"/>
      <feBlend result="blend" in2="SourceGraphic"/>
    </filter>
  </defs>
  <path id="Empty_1_copy_6" data-name="Empty 1 copy 6" class="cls-1" d="M127.917,0A127.917,127.917,0,1,1,0,127.917,127.916,127.916,0,0,1,127.917,0Zm68.872,115.268a27.912,27.912,0,0,1-21.36-9.917l-13.466,9.306a36.446,36.446,0,0,1,.065,25.545l13.28,9.629a27.981,27.981,0,1,1-5.47,10.418l-13.623-9.877a36.288,36.288,0,0,1-22.749,13.069v17.635a27.987,27.987,0,1,1-11.646.145v-17.9a36.328,36.328,0,0,1,0-71.608V75.409a27.967,27.967,0,1,1,11.646.145V91.6a36.289,36.289,0,0,1,22.646,12.944l13.789-9.53A27.976,27.976,0,1,1,196.789,115.268Zm0,66.317a13.834,13.834,0,1,0-13.834-13.834A13.834,13.834,0,0,0,196.789,181.585ZM114.14,208.511a13.834,13.834,0,1,0,13.834-13.834A13.834,13.834,0,0,0,114.14,208.511ZM141.807,48.12a13.833,13.833,0,1,0-13.833,13.834A13.833,13.833,0,0,0,141.807,48.12ZM127.974,108.2a19.318,19.318,0,1,0,19.318,19.318A19.318,19.318,0,0,0,127.974,108.2Zm68.815-34.746a13.833,13.833,0,1,0,13.833,13.834A13.834,13.834,0,0,0,196.789,73.457ZM61.277,59.314A27.977,27.977,0,1,0,89.253,87.291,27.977,27.977,0,0,0,61.277,59.314Zm0,41.81A13.833,13.833,0,1,1,75.11,87.291,13.833,13.833,0,0,1,61.277,101.124Zm0,38.65a27.977,27.977,0,1,0,27.977,27.977A27.977,27.977,0,0,0,61.277,139.774Zm0,41.811A13.834,13.834,0,1,1,75.11,167.751,13.834,13.834,0,0,1,61.277,181.585Z"/>
</svg>
