<svg id="Group_1_copy" data-name="Group 1 copy" xmlns="http://www.w3.org/2000/svg" xmlns:xlink="http://www.w3.org/1999/xlink" width="177" height="177" viewBox="0 0 177 177">
  <defs>
    <style>
      .cls-1, .cls-2 {
        fill-rule: evenodd;
      }

      .cls-1 {
        filter: url(#filter);
      }
    </style>
    <filter id="filter" x="23.781" y="14.781" width="130.969" height="148" filterUnits="userSpaceOnUse">
      <feFlood result="flood" flood-color="#fff"/>
      <feComposite result="composite" operator="in" in2="SourceGraphic"/>
      <feBlend result="blend" in2="SourceGraphic"/>
    </filter>
  </defs>
  <circle cx="88.5" cy="88.5" r="87.5"/>
  <path id="Empty_1_copy_6" data-name="Empty 1 copy 6" class="cls-1" d="M135.611,79.848A19.093,19.093,0,0,1,121,73.064l-9.211,6.366a24.925,24.925,0,0,1,.045,17.474l9.083,6.586a19.132,19.132,0,1,1-3.742,7.127l-9.318-6.756A24.822,24.822,0,0,1,92.3,112.8v12.063a19.144,19.144,0,1,1-7.966.1V112.721a24.85,24.85,0,0,1,0-48.983V52.583a19.13,19.13,0,1,1,7.966.1V63.659a24.824,24.824,0,0,1,15.491,8.854l9.432-6.519A19.136,19.136,0,1,1,135.611,79.848Zm0,45.363a9.463,9.463,0,1,0-9.462-9.463A9.463,9.463,0,0,0,135.611,125.211ZM79.077,143.63a9.463,9.463,0,1,0,9.463-9.463A9.462,9.462,0,0,0,79.077,143.63ZM98,33.916a9.463,9.463,0,1,0-9.463,9.463A9.463,9.463,0,0,0,98,33.916Zm-9.463,41.1A13.214,13.214,0,1,0,101.753,88.23,13.214,13.214,0,0,0,88.539,75.015Zm47.072-23.767a9.463,9.463,0,1,0,9.463,9.463A9.462,9.462,0,0,0,135.611,51.248Zm-92.7-9.675A19.137,19.137,0,1,0,62.053,60.711,19.137,19.137,0,0,0,42.916,41.573Zm0,28.6a9.463,9.463,0,1,1,9.463-9.463A9.463,9.463,0,0,1,42.916,70.173Zm0,26.438a19.137,19.137,0,1,0,19.137,19.137A19.137,19.137,0,0,0,42.916,96.611Zm0,28.6a9.463,9.463,0,1,1,9.463-9.463A9.462,9.462,0,0,1,42.916,125.211Z"/>
  <path id="Kafkador" class="cls-2" d="M233.8,158.044a4.974,4.974,0,0,0,3.675-1.429,4.73,4.73,0,0,0,1.43-3.472V100.259l49.413,54.11c0.409,0.408,1.257,1.123,2.553,2.144a8.522,8.522,0,0,0,5.411,1.531h21.031a4.268,4.268,0,0,0,2.961-1.225,4,4,0,0,0,1.327-3.063,4.07,4.07,0,0,0-1.021-2.654L260.545,83.515,316.7,21.85a3.81,3.81,0,0,0,.816-2.45,4,4,0,0,0-1.327-3.063,4.269,4.269,0,0,0-2.961-1.225H293.011a9.083,9.083,0,0,0-5.207,1.327,13.039,13.039,0,0,0-2.757,2.348L238.9,68V20.216a4.9,4.9,0,0,0-5.105-5.1H215.827a4.73,4.73,0,0,0-3.471,1.429,4.974,4.974,0,0,0-1.429,3.675V153.143a4.879,4.879,0,0,0,4.9,4.9H233.8Zm143.239-.1a38.227,38.227,0,0,0,10.924-5.513,31.251,31.251,0,0,0,7.146-7.249v7.963a4.907,4.907,0,0,0,1.327,3.472,4.633,4.633,0,0,0,3.574,1.429h16.539a4.881,4.881,0,0,0,4.9-4.9V89.028A46.262,46.262,0,0,0,419,73.918a32.143,32.143,0,0,0-7.759-12.455,37.571,37.571,0,0,0-14.191-8.474q-8.882-3.163-21.746-3.165-11.844,0-20.215,3.063A46.24,46.24,0,0,0,341.4,60.34a30.253,30.253,0,0,0-7.76,9.086,20.876,20.876,0,0,0-2.654,7.963,4.639,4.639,0,0,0,1.123,3.267,4.341,4.341,0,0,0,3.369,1.225h16.131a5.2,5.2,0,0,0,4.7-2.654,18.216,18.216,0,0,1,6.841-7.861q4.593-2.958,11.945-2.961,10.413,0,14.7,4.7t4.288,13.272v4.288L366.11,94.745q-18.988,2.862-30.526,11.333a27.963,27.963,0,0,0-6.534,38.592,35.157,35.157,0,0,0,13.579,11.23,43.207,43.207,0,0,0,19.193,4.186A48.271,48.271,0,0,0,377.035,157.942Zm-17.254-18.785a16.481,16.481,0,0,1-7.045-4.7,11.253,11.253,0,0,1-2.757-7.657q0-5.921,5.922-10t17.969-5.922l20.418-3.267V111.9q0,9.8-3.369,16.233a21.772,21.772,0,0,1-9.188,9.5,27.411,27.411,0,0,1-12.966,3.063A26.52,26.52,0,0,1,359.781,139.157Zm114.754,18.887a4.879,4.879,0,0,0,4.9-4.9V73.51h25.32a4.641,4.641,0,0,0,3.573-1.429,4.914,4.914,0,0,0,1.327-3.471V56.766a4.925,4.925,0,0,0-1.327-3.471,4.653,4.653,0,0,0-3.573-1.429h-25.32V44.515q0-7.758,3.063-11.843t11.231-4.084H506.8a4.641,4.641,0,0,0,3.573-1.429,4.914,4.914,0,0,0,1.327-3.471V11.845a4.925,4.925,0,0,0-1.327-3.471A4.652,4.652,0,0,0,506.8,6.944H492.912q-13.477,0-22.257,4.084a28.485,28.485,0,0,0-13.272,12.149q-4.494,8.069-4.492,20.317v8.372h-16.54a4.88,4.88,0,0,0-4.9,4.9V68.609a4.88,4.88,0,0,0,4.9,4.9h16.54v79.633a4.879,4.879,0,0,0,4.9,4.9h16.744Zm67.995,0a4.641,4.641,0,0,0,3.573-1.429,4.915,4.915,0,0,0,1.327-3.472V113.531l39,41.042a34.074,34.074,0,0,0,3.165,2.552,7.947,7.947,0,0,0,4.39.919h19.4a4.509,4.509,0,0,0,3.165-1.225,4.234,4.234,0,0,0,1.327-3.267q0-1.427-2.041-3.471L568.666,99.442l42.063-39.408a4.107,4.107,0,0,0,1.633-1.838,5.015,5.015,0,0,0,.409-1.838,4.216,4.216,0,0,0-4.492-4.492h-18.99a8.021,8.021,0,0,0-4.288.919,27.38,27.38,0,0,0-3.267,2.552L547.43,87.8V17.97A4.925,4.925,0,0,0,546.1,14.5a4.653,4.653,0,0,0-3.573-1.429H525.99a4.88,4.88,0,0,0-4.9,4.9V153.143a4.879,4.879,0,0,0,4.9,4.9h16.54Zm129.558-.1a38.214,38.214,0,0,0,10.924-5.513,31.251,31.251,0,0,0,7.146-7.249v7.963a4.9,4.9,0,0,0,1.328,3.472,4.629,4.629,0,0,0,3.573,1.429H711.6a4.881,4.881,0,0,0,4.9-4.9V89.028a46.262,46.262,0,0,0-2.451-15.11,32.132,32.132,0,0,0-7.759-12.455A37.571,37.571,0,0,0,692.1,52.989q-8.881-3.163-21.746-3.165-11.844,0-20.215,3.063a46.24,46.24,0,0,0-13.68,7.453,30.253,30.253,0,0,0-7.76,9.086,20.876,20.876,0,0,0-2.654,7.963,4.639,4.639,0,0,0,1.123,3.267,4.343,4.343,0,0,0,3.369,1.225h16.131a5.2,5.2,0,0,0,4.7-2.654,18.216,18.216,0,0,1,6.841-7.861q4.594-2.958,11.945-2.961,10.413,0,14.7,4.7t4.288,13.272v4.288l-27.973,4.084q-18.99,2.862-30.527,11.333A27.965,27.965,0,0,0,624.1,144.67a35.157,35.157,0,0,0,13.579,11.23,43.209,43.209,0,0,0,19.194,4.186A48.269,48.269,0,0,0,672.088,157.942Zm-17.254-18.785a16.481,16.481,0,0,1-7.045-4.7,11.252,11.252,0,0,1-2.756-7.657q0-5.921,5.921-10t17.969-5.922l20.419-3.267V111.9q0,9.8-3.369,16.233a21.774,21.774,0,0,1-9.189,9.5,27.411,27.411,0,0,1-12.966,3.063A26.52,26.52,0,0,1,654.834,139.157ZM796.643,156a40.177,40.177,0,0,0,12.966-10.414v7.555a4.9,4.9,0,0,0,1.327,3.472,4.632,4.632,0,0,0,3.573,1.429H830.64a4.879,4.879,0,0,0,4.9-4.9V17.97a4.88,4.88,0,0,0-4.9-4.9H813.284a4.644,4.644,0,0,0-3.573,1.429,4.912,4.912,0,0,0-1.327,3.471V63.3a39.951,39.951,0,0,0-12.762-9.7q-7.657-3.776-18.683-3.778A44.641,44.641,0,0,0,758.255,53.5a36.794,36.794,0,0,0-13.476,10.312,45.865,45.865,0,0,0-8.168,15.416,72.939,72.939,0,0,0-3.165,18.99q-0.206,3.676-.2,6.636t0.2,6.636a72.5,72.5,0,0,0,3.267,19.5,46.942,46.942,0,0,0,8.168,15.416,35.349,35.349,0,0,0,13.374,10.108,45.779,45.779,0,0,0,18.684,3.573Q788.779,160.086,796.643,156ZM770.915,134.46a21.279,21.279,0,0,1-7.249-9.9,46.363,46.363,0,0,1-2.654-13.476q-0.205-6.126,0-12.252a46.362,46.362,0,0,1,2.654-13.477,21.3,21.3,0,0,1,7.249-9.9q5-3.776,13.579-3.777,8.164,0,13.272,3.675a23.877,23.877,0,0,1,7.759,9.291,29.55,29.55,0,0,1,2.859,11.741q0.2,3.675.2,7.861t-0.2,7.861a35.6,35.6,0,0,1-2.655,12.354,23.16,23.16,0,0,1-7.555,9.9q-5.106,3.882-13.68,3.88T770.915,134.46ZM932.02,154.369a39.637,39.637,0,0,0,16.948-16.131,55.888,55.888,0,0,0,6.636-24.3q0.2-3.675.2-8.984t-0.2-8.984q-0.818-14.089-6.84-24.4a41.156,41.156,0,0,0-17.152-16.029q-11.131-5.714-27.055-5.717T877.5,55.541A41.12,41.12,0,0,0,860.35,71.57q-6.026,10.313-6.84,24.4-0.207,3.675-.205,8.984t0.205,8.984a55.847,55.847,0,0,0,6.636,24.3,39.613,39.613,0,0,0,16.947,16.131q11.127,5.713,27.464,5.717T932.02,154.369Zm-44.207-21.338q-5.923-6.838-6.534-20.113-0.205-3.063-.2-7.963t0.2-7.963q0.613-13.065,6.534-20.011t16.744-6.942q10.821,0,16.743,6.942t6.534,20.011q0.2,3.063.205,7.963t-0.205,7.963q-0.612,13.276-6.534,20.113t-16.743,6.84Q893.732,139.871,887.813,133.031Zm108.22,25.013a4.974,4.974,0,0,0,3.676-1.429,4.731,4.731,0,0,0,1.431-3.472V96.992q0-9.6,5.41-15.11t15.21-5.513h15.93a4.648,4.648,0,0,0,3.57-1.429,4.891,4.891,0,0,0,1.33-3.471v-14.7a4.9,4.9,0,0,0-1.33-3.471,4.659,4.659,0,0,0-3.57-1.429h-8.37a40.49,40.49,0,0,0-17.26,3.471,30.583,30.583,0,0,0-12.147,10.005V56.97a4.8,4.8,0,0,0-1.531-3.675,5.086,5.086,0,0,0-3.574-1.429H978.269A4.73,4.73,0,0,0,974.8,53.3a4.974,4.974,0,0,0-1.429,3.675v96.173a4.879,4.879,0,0,0,4.9,4.9h17.764Z"/>
</svg>
